<svg xmlns="http://www.w3.org/2000/svg" viewBox="0 0 128 128" width="128" height="128">
<title>Mission Control — Wraparound</title>
<defs><filter id="mcr09-h" x="-10%" y="-10%" width="120%" height="120%"><feMorphology in="SourceAlpha" operator="dilate" radius="1.5" result="d"/><feFlood flood-color="#fff" flood-opacity=".7"/><feComposite in2="d" operator="in"/><feMerge><feMergeNode/><feMergeNode in="SourceGraphic"/></feMerge></filter></defs><g filter="url(#mcr09-h)"><path d="M6 60 Q64 34 122 60 L118 82 Q64 60 10 82Z" fill="#24479e" stroke="#1b2559" stroke-width="4" stroke-linejoin="round"/><g stroke="#5ec8ff" stroke-width="2.4" stroke-linecap="round"><path d="M16 64 L32 60 M18 72 L30 69 M98 60 L112 64 M98 69 L110 72"/></g><g transform="translate(64 30) scale(0.9)"><path d="M0 -20 L17.3 -10 L17.3 10 L0 20 L-17.3 10 L-17.3 -10Z" fill="#7a57e8" stroke="#4b2e83" stroke-width="3" stroke-linejoin="round"/><path d="M0 -20 L17.3 -10 L17.3 10 L0 20 L-17.3 10 L-17.3 -10Z" fill="none"/><path d="M0 -20 L17.3 -10 L17.3 10 L0 20Z" fill="#4b2e83" opacity=".35"/><path d="M-5 6 V-11 L8 -15 V2" fill="none" stroke="#fff" stroke-width="3.2" stroke-linejoin="round"/><path d="M-5 -11 L8 -15 V-10 L-5 -6Z" fill="#fff"/><ellipse cx="-9" cy="6" rx="5" ry="4" fill="#fff" transform="rotate(-20 -9 6)"/><ellipse cx="4" cy="2" rx="5" ry="4" fill="#fff" transform="rotate(-20 4 2)"/></g>
<path d="M4 86 Q64 62 124 86 L120 106 Q64 84 8 106Z" fill="#1b2559"/><g fill="#ffc94a"><circle cx="30" cy="88" r="3"/><circle cx="98" cy="88" r="3"/></g><g transform="translate(64 124) scale(1.3)"><circle cx="0" cy="-36" r="10" fill="#3a3f8f"/><path d="M-19 0 V-16 Q-19 -26 0 -26 Q19 -26 19 -16 V0Z" fill="#4b2e83"/><rect x="-17" y="-16" width="34" height="18" rx="7" fill="#3b3f9a"/></g></g>
</svg>
