<svg xmlns="http://www.w3.org/2000/svg" viewBox="0 0 128 128" width="128" height="128">
<title>Art Station — Pastel day</title>
<circle cx="86" cy="64" r="38" fill="#1b0f3b" stroke="#b967ff" stroke-width="3"/>
<circle cx="86" cy="64" r="28.88" fill="none" stroke="#4a3480" stroke-width="1.5"/><circle cx="86" cy="64" r="20.900000000000002" fill="none" stroke="#4a3480" stroke-width="1.5"/>
<circle cx="86" cy="64" r="11.02" fill="#ff71ce"/><circle cx="86" cy="64" r="2.508" fill="#1b0f3b"/><defs><linearGradient id="v01cskyc" x1="0" y1="0" x2="0" y2="1"><stop offset="0.00" stop-color="#7fe7ff"/><stop offset="0.50" stop-color="#d9a6ff"/><stop offset="1.00" stop-color="#ff71ce"/></linearGradient><clipPath id="v01ccc"><rect x="10" y="22" width="78" height="84" rx="8"/></clipPath></defs>
<g clip-path="url(#v01ccc)"><rect x="10" y="22" width="78" height="84" fill="url(#v01cskyc)"/>
<defs><linearGradient id="v01cgs2" x1="0" y1="0" x2="0" y2="1"><stop offset="0" stop-color="#fff6a8"/><stop offset="1" stop-color="#ff8a5c"/></linearGradient>
<mask id="v01cms2"><rect width="128" height="128" fill="#fff"/><rect x="25.6" y="67.2" width="46.8" height="1.2" fill="#000"/><rect x="25.6" y="69.8" width="46.8" height="1.5" fill="#000"/><rect x="25.6" y="73.0" width="46.8" height="1.8" fill="#000"/><rect x="25.6" y="77.0" width="46.8" height="2.3" fill="#000"/><rect x="25.6" y="82.0" width="46.8" height="2.9" fill="#000"/><rect x="25.6" y="88.3" width="46.8" height="3.6" fill="#000"/><rect x="25.6" y="96.2" width="46.8" height="4.5" fill="#000"/></mask></defs>
<circle cx="49" cy="76.08" r="23.4" fill="url(#v01cgs2)" mask="url(#v01cms2)"/><rect x="10" y="74.08" width="78" height="31.92" fill="#b967ff"/><path d="M10 74.08H88M10 77.9H88M10 83.2H88M10 91.4H88M10 104.2H88M34.8 74.08L-48.5 106M38.4 74.08L-24.1 106M41.9 74.08L0.3 106M45.5 74.08L24.6 106M49.0 74.08L49.0 106M52.5 74.08L73.4 106M56.1 74.08L97.8 106M59.6 74.08L122.1 106M63.2 74.08L146.5 106" stroke="#fffb96" stroke-width="1.3" fill="none" stroke-linecap="round"/></g><rect x="10" y="22" width="78" height="84" rx="8" fill="none" stroke="#2a1458" stroke-width="3"/>
</svg>
