<svg xmlns="http://www.w3.org/2000/svg" viewBox="0 0 128 128" width="128" height="128">
<title>Apollo Editor — Note window</title>
<g transform="translate(64 64) rotate(0) scale(4) translate(-16 -16.25)"><path d="M13.4 22 L18.6 22 L16 30 Z" fill="#ff8c3b"/><path d="M14.6 22 L17.4 22 L16 26.8 Z" fill="#ffd24a"/><path d="M12 18 L8 23.5 L12 22 Z M20 18 L24 23.5 L20 22 Z" fill="#3d2470"/><path d="M16 2.5 C19 7 20 12 20 16 L20 22 L12 22 L12 16 C12 12 13 7 16 2.5 Z" fill="#5f3ec0"/><circle cx="16" cy="12.5" r="3.3" fill="#cfe8ff" stroke="#2a1a52" stroke-width="1"/><path d="M15.6 14.2 V10.6 L17.6 10.1" fill="none" stroke="#2a1a52" stroke-width=".7" stroke-linecap="round"/><circle cx="15" cy="14.3" r=".85" fill="#2a1a52"/></g>
</svg>
