<svg xmlns="http://www.w3.org/2000/svg" viewBox="0 0 128 128" width="128" height="128">
<title>Apollo Editor — Shuttle stack</title>
<filter id="ap904-h" x="-15%" y="-15%" width="130%" height="130%"><feMorphology in="SourceAlpha" operator="dilate" radius="3" result="d"/><feFlood flood-color="#fff" flood-opacity="0.7"/><feComposite in2="d" operator="in" result="h"/><feMerge><feMergeNode in="h"/><feMergeNode in="SourceGraphic"/></feMerge></filter><g filter="url(#ap904-h)"><g fill="#ff6a00"><path d="M32 106 L38 124 L44 106 Z"/><path d="M84 106 L90 124 L96 106 Z"/><path d="M58 106 L64 120 L70 106 Z"/></g><g stroke="#1b2a4a" stroke-width="4" stroke-linejoin="round"><path d="M50 34 C50 16 78 16 78 34 L78 104 L50 104 Z" fill="#e07a2e"/><path d="M32 40 L38 24 L44 40 L44 106 L32 106 Z" fill="#fff"/><path d="M84 40 L90 24 L96 40 L96 106 L84 106 Z" fill="#fff"/><path d="M56 84 L38 108 L56 104 Z" fill="#fff"/><path d="M72 84 L90 108 L72 104 Z" fill="#fff"/><path d="M56 56 C56 44 72 44 72 56 L72 106 L56 106 Z" fill="#fff"/><path d="M56 56 C56 44 72 44 72 56 Z" fill="#1b2a4a"/></g></g>
</svg>
