<svg xmlns="http://www.w3.org/2000/svg" viewBox="0 0 128 128" width="128" height="128">
<title>Apollo Editor — Orange tile</title>
<linearGradient id="ap909-g" x1="0" y1="0" x2="1" y2="1"><stop offset="0" stop-color="#ffa21a"/><stop offset="1" stop-color="#e63946"/></linearGradient><rect x="6" y="6" width="116" height="116" rx="28" fill="url(#ap909-g)"/><g transform="translate(64 64) rotate(45) scale(0.74) translate(-64 -67)"><path d="M52 100 C54 112 60 118 64 126 C68 118 74 112 76 100 Z" fill="#fff3c4"/><path d="M57 100 C58 108 62 112 64 118 C66 112 70 108 71 100 Z" fill="#fff"/><g stroke="none" stroke-width="0" stroke-linejoin="round"><path d="M42 64 C28 72 22 90 24 110 L42 98 Z" fill="#fff"/><path d="M86 64 C100 72 106 90 104 110 L86 98 Z" fill="#fff"/><path d="M48 90 L80 90 L76 100 L52 100 Z" fill="#ffe3c2"/><path d="M64 8 C84 24 90 52 88 90 L40 90 C38 52 44 24 64 8 Z" fill="#fff"/></g><circle cx="64" cy="50" r="11" fill="#1b2a4a" stroke="none" stroke-width="0"/></g>
</svg>
